<?xml version="1.0" standalone="no"?>
<!DOCTYPE svg PUBLIC "-//W3C//DTD SVG 20010904//EN"
 "http://www.w3.org/TR/2001/REC-SVG-20010904/DTD/svg10.dtd">
<svg version="1.0" xmlns="http://www.w3.org/2000/svg"
 width="720.000000pt" height="720.000000pt" viewBox="0 0 720.000000 720.000000"
 preserveAspectRatio="xMidYMid meet">
<metadata>
Created by potrace 1.14, written by Peter Selinger 2001-2017
</metadata>
<g transform="translate(0.000000,720.000000) scale(0.100000,-0.100000)"
fill="#000000" stroke="none">
<path d="M0 3600 l0 -3600 3600 0 3600 0 0 3600 0 3600 -3600 0 -3600 0 0
-3600z m3830 3039 c300 -56 621 -214 924 -455 237 -189 517 -313 765 -338 29
-3 56 -7 58 -10 15 -15 -91 -145 -188 -231 -102 -90 -253 -159 -407 -186 -78
-14 -286 -6 -377 15 -143 32 -308 111 -439 211 -77 58 -108 67 -257 72 -166 7
-271 -11 -375 -63 -81 -40 -162 -107 -202 -167 -36 -54 -72 -142 -72 -178 0
-15 -4 -31 -10 -34 -12 -8 -13 -202 0 -265 13 -69 1 -68 -14 1 -3 15 -13 29
-21 33 -13 4 -14 2 -5 -14 5 -10 10 -30 10 -44 0 -14 6 -26 13 -26 8 0 7 -3
-3 -9 -18 -12 -30 -5 -30 20 0 17 -7 19 -79 19 -79 0 -80 0 -83 -27 -3 -24 -8
-28 -38 -31 -19 -2 -37 -8 -41 -13 -3 -5 -58 -12 -122 -16 -64 -3 -117 -10
-117 -15 0 -4 18 -8 40 -8 29 0 40 -4 40 -15 0 -11 -11 -15 -40 -15 -22 0 -40
-4 -40 -10 0 -5 -35 -10 -77 -12 -73 -3 -77 -4 -83 -28 -6 -24 -9 -25 -83 -25
-67 0 -77 -2 -77 -17 0 -15 -9 -18 -44 -18 -36 0 -48 5 -65 26 -11 15 -18 30
-16 35 3 4 -3 13 -14 19 -47 24 -135 213 -170 361 -13 56 -13 58 20 130 29 65
103 195 119 209 3 3 23 28 45 55 50 63 176 185 192 185 6 0 13 4 15 8 4 12 87
66 126 83 17 8 32 17 32 20 0 4 8 9 18 12 9 3 62 21 117 41 152 56 315 79 500
72 83 -3 167 -9 188 -15 l39 -9 -22 23 c-28 30 -20 65 16 65 14 0 22 4 19 10
-3 6 1 10 9 10 14 0 16 21 17 143 1 78 3 204 5 279 l2 137 -54 7 c-97 12 -47
22 89 18 76 -2 181 -13 247 -25z m-403 15 c-3 -3 -12 -4 -19 -1 -8 3 -5 6 6 6
11 1 17 -2 13 -5z m93 -84 c0 -5 -18 -10 -40 -10 -22 0 -40 5 -40 10 0 6 18
10 40 10 22 0 40 -4 40 -10z m-80 -560 c0 -5 -4 -10 -10 -10 -5 0 -10 5 -10
10 0 6 5 10 10 10 6 0 10 -4 10 -10z m1390 -987 c11 -10 20 -21 20 -26 0 -5
-7 -4 -15 3 -12 10 -15 10 -15 -1 0 -8 10 -20 21 -28 18 -11 23 -11 30 1 6 8
9 -3 10 -32 1 -40 2 -42 8 -15 l7 30 13 -23 c10 -18 10 -26 0 -38 -7 -9 -8
-14 -1 -14 6 0 12 6 14 12 12 35 99 -132 142 -272 15 -47 34 -110 44 -140 28
-90 22 -326 -11 -458 -33 -132 -79 -235 -149 -342 -192 -288 -537 -498 -981
-596 -106 -24 -145 -28 -297 -28 -146 0 -193 3 -280 22 -58 13 -112 26 -120
29 -8 3 -22 7 -30 8 -44 5 -171 54 -182 69 -4 5 1 16 10 23 16 12 12 15 -18
15 -3 0 -14 9 -25 21 l-20 20 23 -6 c27 -6 52 1 52 14 0 5 -13 9 -30 9 -18 0
-30 5 -30 13 0 8 -9 25 -21 38 -18 21 -18 25 -5 35 9 6 16 25 16 43 0 21 5 31
15 31 13 0 15 29 15 200 l0 200 28 0 27 1 -27 24 c-16 13 -28 31 -28 40 0 8
-7 15 -15 15 -11 0 -15 11 -15 40 0 40 5 44 47 43 18 -1 4 25 -18 32 -11 4
-17 11 -13 16 4 7 12 5 22 -4 10 -8 38 -19 64 -26 65 -15 309 -14 388 3 186
40 343 170 401 333 24 66 45 333 28 344 -6 4 -5 17 3 35 17 40 17 40 34 16 17
-25 34 -29 34 -7 0 11 18 15 78 17 76 3 77 3 80 31 3 24 7 27 43 27 28 0 39 4
39 15 0 11 11 15 40 15 29 0 40 4 40 15 0 11 11 15 40 15 22 0 40 5 40 10 0 6
33 10 80 10 47 0 80 -4 80 -10 0 -5 7 -10 15 -10 11 0 15 11 15 40 0 36 3 40
24 40 13 0 26 5 28 12 5 14 71 13 76 -1 5 -16 51 -13 68 3 8 8 14 26 14 40 0
31 3 32 30 9z m-913 -215 c-3 -8 -6 -5 -6 6 -1 11 2 17 5 13 3 -3 4 -12 1 -19z
m-1527 -87 c0 -12 -39 -21 -45 -11 -3 5 5 11 17 13 13 2 24 5 26 6 1 0 2 -3 2
-8z m7 -43 c-3 -8 -6 -5 -6 6 -1 11 2 17 5 13 3 -3 4 -12 1 -19z m523 -558 c0
-5 -4 -10 -9 -10 -6 0 -13 5 -16 10 -3 6 1 10 9 10 9 0 16 -4 16 -10z m86 -67
c-7 -7 -26 7 -26 19 0 6 6 6 15 -2 9 -7 13 -15 11 -17z m24 -33 c13 -8 13 -10
-2 -10 -9 0 -20 5 -23 10 -8 13 5 13 25 0z m-111 -769 c-15 -5 -22 6 -14 19 6
9 10 9 16 -1 5 -8 4 -15 -2 -18z m96 -35 c20 -15 20 -15 -1 -16 -12 0 -25 7
-28 16 -3 9 -12 14 -19 11 -7 -3 -13 5 -13 18 -2 23 -1 23 20 4 11 -10 30 -25
41 -33z m123 -873 c1 -68 4 -123 7 -123 2 0 21 10 42 23 53 31 180 31 239 0
97 -52 144 -133 144 -250 0 -154 -86 -256 -232 -278 -53 -8 -131 9 -169 36
l-29 20 -10 -26 c-9 -25 -13 -26 -77 -23 l-68 3 -3 373 -2 373 77 -3 78 -3 3
-122z m2432 8 c0 -124 7 -146 38 -118 38 33 143 46 215 26 49 -13 105 -63 128
-114 16 -34 19 -68 19 -233 l0 -193 -77 3 -78 3 -5 175 c-6 197 -11 213 -73
232 -62 19 -116 -5 -144 -62 -21 -40 -23 -58 -23 -198 l0 -153 -77 3 -78 3 -3
360 c-1 198 0 366 3 372 3 9 29 13 80 13 l75 0 0 -119z m-4224 39 c7 -19 40
-123 74 -230 34 -107 66 -199 70 -203 7 -8 50 113 145 403 l22 65 76 3 c67 2
78 0 84 -15 4 -10 39 -116 78 -236 39 -120 74 -219 79 -220 6 -1 44 104 87
233 l77 235 76 3 c68 3 76 1 75 -15 0 -10 -51 -169 -112 -353 l-112 -335 -89
0 -89 0 -73 219 c-70 210 -80 234 -87 225 -2 -2 -38 -103 -79 -224 l-75 -220
-86 -3 c-74 -2 -87 0 -95 15 -6 10 -51 144 -102 298 -50 154 -98 297 -106 318
-28 75 -25 78 68 75 l82 -3 12 -35z m2809 -25 l0 -60 -110 -5 -110 -5 -5 -285
-5 -285 -80 0 -80 0 -5 285 -5 285 -105 3 c-68 2 -107 7 -112 15 -4 7 -8 29
-8 49 0 73 -22 69 319 66 l306 -3 0 -60z m-1468 -110 c65 -19 134 -80 161
-142 27 -65 36 -126 22 -152 -10 -20 -19 -21 -205 -21 -106 0 -196 -4 -199 -8
-8 -13 33 -52 70 -68 44 -18 132 -18 168 1 42 22 58 19 96 -20 43 -44 37 -59
-45 -100 -51 -25 -69 -29 -144 -29 -73 -1 -95 3 -146 27 -113 53 -165 130
-165 248 0 198 185 324 387 264z m1841 0 c104 -31 187 -151 180 -261 l-3 -49
-202 -3 c-112 -1 -203 -6 -203 -10 0 -18 32 -51 66 -67 47 -22 123 -21 178 3
l44 20 42 -43 c37 -38 40 -44 26 -58 -59 -59 -176 -87 -277 -68 -78 16 -109
31 -165 83 -105 97 -102 295 8 393 77 70 194 93 306 60z m651 -1 c55 -16 146
-93 139 -117 -2 -7 -29 -25 -59 -41 l-54 -29 -33 31 c-93 87 -232 26 -232
-101 0 -78 34 -127 103 -145 47 -13 96 0 127 33 13 14 31 25 40 25 18 0 110
-56 110 -66 0 -4 -12 -23 -26 -42 -30 -39 -107 -77 -175 -87 -51 -8 -147 9
-193 32 -183 94 -203 352 -36 468 76 53 191 68 289 39z m-1209 -934 c0 -18 6
-33 15 -36 13 -5 13 -8 0 -27 -22 -31 -18 -54 10 -73 51 -34 113 22 80 73 -8
12 -25 24 -37 26 -21 4 -21 4 -2 6 29 2 64 -31 64 -61 0 -13 -9 -34 -20 -46
-16 -17 -31 -21 -74 -20 l-54 1 0 94 c0 51 4 93 9 93 5 0 9 -14 9 -30z m-1667
6 c15 -12 12 -13 -28 -8 -53 5 -80 -12 -90 -59 -4 -16 -11 -29 -16 -29 -27 0
11 74 49 94 34 19 62 19 85 2z m2443 -114 c-12 -11 -13 4 -7 68 l6 65 3 -64
c2 -35 1 -66 -2 -69z m203 38 c-2 -91 -3 -96 -28 -81 -9 6 -10 11 -2 15 19 12
13 74 -8 86 -32 16 -59 12 -76 -14 -22 -32 -3 -73 39 -85 l31 -9 -27 -1 c-56
-2 -91 75 -51 114 13 13 27 16 60 11 42 -6 43 -5 43 24 0 17 5 30 10 30 7 0
10 -33 9 -90z m-2026 39 c7 0 2 -4 -11 -10 -20 -8 -23 -15 -20 -56 3 -41 6
-48 28 -54 21 -6 22 -7 5 -8 -32 -2 -45 18 -45 66 0 30 -5 45 -15 50 -14 5
-14 8 1 24 14 16 18 16 31 4 8 -8 20 -15 26 -16z m-509 -5 c14 -5 14 -8 1 -21
-13 -13 -20 -54 -16 -90 1 -7 -2 -13 -7 -13 -5 0 -8 29 -8 65 1 66 3 69 30 59z
m200 -10 c31 -30 20 -44 -34 -44 -37 0 -52 -4 -57 -16 -8 -22 11 -37 52 -38
44 -1 46 -16 2 -16 -40 0 -77 31 -77 65 0 23 2 24 44 19 25 -4 52 -4 62 0 25
9 0 34 -39 39 l-32 4 32 1 c17 1 39 -5 47 -14z m169 2 c21 -16 26 -121 5 -113
-7 2 -12 16 -10 31 3 30 -15 41 -53 32 -34 -9 -33 -41 3 -54 l27 -10 -28 -1
c-20 -1 -30 6 -39 24 -15 33 4 55 48 55 59 0 50 34 -11 43 -29 4 -29 4 5 5 19
1 43 -5 53 -12z m224 -83 c-2 -21 -4 -6 -4 32 0 39 2 55 4 38 2 -18 2 -50 0
-70z m82 66 c7 -16 11 -33 7 -36 -3 -3 -10 7 -16 22 -6 15 -13 32 -16 36 -3 5
-2 9 3 9 4 0 14 -14 22 -31z m86 -21 c-14 -29 -25 -59 -25 -65 0 -25 -37 -14
-42 12 -4 21 -3 23 14 14 16 -9 21 -4 38 33 17 40 29 58 36 58 2 0 -8 -24 -21
-52z m98 35 c-7 -3 -13 -11 -13 -19 0 -10 13 -14 45 -14 55 0 63 24 13 39 -22
6 -26 10 -13 10 26 1 65 -26 65 -45 0 -10 -12 -14 -42 -15 -24 0 -51 -4 -61
-7 -16 -7 -16 -9 -2 -29 9 -12 29 -23 48 -26 l32 -4 -33 -1 c-46 -3 -87 38
-77 76 6 28 34 56 44 46 3 -4 0 -9 -6 -11z m245 -16 c18 -50 14 -57 -8 -13
-23 45 -23 46 -12 46 4 0 13 -15 20 -33z m121 -15 c19 -53 46 -57 55 -8 4 19
13 40 22 47 11 9 9 -5 -9 -52 -29 -78 -47 -85 -68 -27 -8 23 -20 43 -26 45 -6
2 -21 -17 -33 -42 -12 -25 -26 -45 -31 -45 -5 0 -9 2 -9 4 0 2 -3 12 -7 22 -5
14 -3 16 11 11 16 -6 32 18 50 76 9 29 28 15 45 -31z m172 35 c-38 -19 -30
-32 22 -35 30 -2 47 1 47 8 0 6 5 8 10 5 23 -14 7 -25 -37 -25 -27 0 -55 -4
-63 -10 -12 -7 -12 -12 4 -29 10 -11 30 -22 45 -24 l26 -4 -27 -2 c-32 -1 -78
37 -78 66 0 24 35 63 58 63 12 0 11 -4 -7 -13z m59 3 c8 -5 11 -10 5 -10 -5 0
-17 5 -25 10 -8 5 -10 10 -5 10 6 0 17 -5 25 -10z m400 -4 c0 -8 3 -23 7 -33
6 -16 5 -16 -10 -5 -9 8 -21 11 -27 7 -11 -7 -13 5 -4 29 8 20 34 21 34 2z
m254 -2 c24 -24 20 -80 -6 -98 -31 -22 -60 -20 -92 5 -28 22 -33 54 -13 80 24
31 86 39 111 13z m110 10 c13 -5 14 -10 5 -20 -6 -7 -13 -32 -15 -55 -6 -67
-14 -59 -14 14 0 37 2 67 4 67 2 0 12 -3 20 -6z m-469 -45 c6 -36 10 -40 31
-36 27 5 28 3 14 -24 -17 -30 -27 -23 -49 36 -24 64 -24 65 -12 65 5 0 12 -18
16 -41z m-1909 -68 c38 -9 38 -9 8 -10 -32 -1 -84 31 -84 51 0 6 8 1 19 -10
10 -12 36 -26 57 -31z m2055 29 c21 0 22 -1 13 -24 -8 -20 -34 -21 -34 -2 0 8
-2 20 -3 28 -2 7 -2 10 0 6 3 -5 13 -8 24 -8z m436 -32 c-3 -7 -5 -2 -5 12 0
14 2 19 5 13 2 -7 2 -19 0 -25z"/>
<path d="M2300 4830 c0 -5 5 -10 10 -10 6 0 10 5 10 10 0 6 -4 10 -10 10 -5 0
-10 -4 -10 -10z"/>
<path d="M3945 4710 c3 -5 8 -10 11 -10 2 0 4 5 4 10 0 6 -5 10 -11 10 -5 0
-7 -4 -4 -10z"/>
<path d="M3084 3952 c2 -8 10 -18 19 -24 14 -7 17 -4 17 16 0 18 -5 24 -19 23
-10 0 -18 -7 -17 -15z"/>
<path d="M3090 3240 c0 -5 7 -10 15 -10 8 0 15 5 15 10 0 6 -7 10 -15 10 -8 0
-15 -4 -15 -10z"/>
<path d="M3093 3183 c8 -9 22 -10 42 -4 30 8 29 8 -12 12 -34 4 -40 2 -30 -8z"/>
<path d="M3213 2124 c-72 -36 -97 -145 -50 -215 28 -42 60 -59 112 -59 52 0
84 17 112 59 46 68 19 182 -51 215 -43 20 -82 20 -123 0z"/>
<path d="M2519 2125 c-31 -17 -62 -61 -54 -75 4 -6 59 -10 125 -10 66 0 121 4
125 10 9 14 -24 59 -56 76 -35 18 -106 18 -140 -1z"/>
<path d="M4333 2107 c-25 -23 -34 -39 -30 -50 5 -15 24 -17 125 -17 65 0 121
3 125 6 12 12 -23 64 -53 79 -16 8 -52 15 -80 15 -43 0 -55 -5 -87 -33z"/>
<path d="M4443 1272 c-22 -14 -27 -61 -8 -82 38 -42 104 -8 90 47 -7 31 -21
43 -50 43 -11 0 -25 -4 -32 -8z"/>
</g>
</svg>
